<svg xmlns="http://www.w3.org/2000/svg" viewBox="0 0 35.63 35.63"><defs><style>.cls-1{fill:#76ff03;}.cls-2{fill:none;stroke:#76ff03;stroke-miterlimit:10;stroke-width:0.63px;opacity:0.1;}</style></defs><title>instagram_1</title><g id="Layer_2" data-name="Layer 2"><g id="Layer_1-2" data-name="Layer 1"><path class="cls-1" d="M6.67,2.81H29a3.86,3.86,0,0,1,3.85,3.84V29A3.86,3.86,0,0,1,29,32.81H6.67A3.87,3.87,0,0,1,2.81,29V6.66A3.86,3.86,0,0,1,6.67,2.81Zm18,3.32a1.36,1.36,0,0,0-1.36,1.36v3.23a1.36,1.36,0,0,0,1.36,1.36h3.39a1.36,1.36,0,0,0,1.35-1.36V7.49a1.36,1.36,0,0,0-1.35-1.36Zm4.75,9.36H26.78a8.55,8.55,0,0,1,.38,2.57,9.18,9.18,0,0,1-9.32,9,9.19,9.19,0,0,1-9.33-9,8.55,8.55,0,0,1,.39-2.57H6.15V28.17a1.2,1.2,0,0,0,1.19,1.19H28.23a1.2,1.2,0,0,0,1.19-1.19ZM17.84,11.91a5.93,5.93,0,0,0-6,5.83,6,6,0,0,0,12,0A5.93,5.93,0,0,0,17.84,11.91Z"/><path class="cls-2" d="M3.44.31H32.19a3.12,3.12,0,0,1,3.12,3.12V32.19a3.13,3.13,0,0,1-3.12,3.13H3.44A3.13,3.13,0,0,1,.31,32.19V3.44A3.13,3.13,0,0,1,3.44.31Z"/></g></g></svg>