<svg xmlns="http://www.w3.org/2000/svg" viewBox="0 0 35.63 35.63"><defs><style>.cls-1{fill:#76ff03;}.cls-2{fill:none;stroke:#76ff03;stroke-miterlimit:10;stroke-width:0.63px;opacity:0.1;}</style></defs><title>snapChat_1</title><g id="Layer_2" data-name="Layer 2"><g id="Layer_1-2" data-name="Layer 1"><path id="_Path_" data-name="&lt;Path&gt;" class="cls-1" d="M33.56,25.69h0l0,0h0a3.91,3.91,0,0,0-1-.37h0a8.8,8.8,0,0,1-4.18-3.05,9.68,9.68,0,0,1-1.44-2.51h0a1.21,1.21,0,0,1,.06-1.07h0a3,3,0,0,1,1.44-.92h0a5.62,5.62,0,0,0,2-1h0a1.26,1.26,0,0,0,.28-.36.82.82,0,0,0,0-.13.76.76,0,0,0,0-.51h0a1.6,1.6,0,0,0-.69-.65h0a1.45,1.45,0,0,0-1.17-.11h0a7.33,7.33,0,0,1-1,.3h0a2.38,2.38,0,0,1-1.18,0s0-.14,0-.26h0c0-.71,0-1.44,0-2.2h0a20.71,20.71,0,0,0-.09-3.53v0a7.9,7.9,0,0,0-3.31-4.91,8.37,8.37,0,0,0-4-1.44h0a13.4,13.4,0,0,0-1.45-.06,9,9,0,0,0-5.54,1.76,9,9,0,0,0-2.7,3.51h0A10,10,0,0,0,9,12.39H9a19.54,19.54,0,0,1,.06,2.82v.06a3.88,3.88,0,0,1-1.39,0h0C7.33,15.17,7,15,6.6,14.93h0a1.27,1.27,0,0,0-1,.23h0a1.09,1.09,0,0,0-.57.85.6.6,0,0,0,0,.08h0a1,1,0,0,0,.36.58c.14.13.28.21.36.27h0a10.42,10.42,0,0,0,2.18.94h0a1.57,1.57,0,0,1,1,.93,2.66,2.66,0,0,1-.39,1.67h0a10.21,10.21,0,0,1-3.31,3.79,8,8,0,0,1-2.43,1.11h0a1.39,1.39,0,0,0-.87.51.4.4,0,0,0,0,.09.74.74,0,0,0,.14.68,1.24,1.24,0,0,0,.37.29h0a8.73,8.73,0,0,0,2.25.78h0a8.6,8.6,0,0,1,1.4.35s.06.16.15.38c.13.4.19.87.34,1.36a.41.41,0,0,0,.3.27.88.88,0,0,0,.54,0h0A8.78,8.78,0,0,1,10.87,30h0a13.67,13.67,0,0,1,3.33,1.8h0a5.37,5.37,0,0,0,2.65,1h0a17.7,17.7,0,0,0,2.25-.05h0a4,4,0,0,0,1.77-.61h0c1.2-.68,2.27-1.5,3.44-2h0a5.59,5.59,0,0,1,1.38-.17h0a18.23,18.23,0,0,1,2.91.15h.1a.56.56,0,0,0,.33-.18.51.51,0,0,0,.1-.21c0-.1.05-.14,0-.06l0-.08a4,4,0,0,1,.56-1.43.85.85,0,0,1,.6-.18h.06a10.64,10.64,0,0,0,2.32-.65h0a2,2,0,0,0,.94-.63h0A.66.66,0,0,0,33.56,25.69Z"/><rect class="cls-2" x="0.31" y="0.31" width="35" height="35" rx="3.13" ry="3.13"/></g></g></svg>