<svg xmlns="http://www.w3.org/2000/svg" viewBox="0 0 35.63 35.63"><defs><style>.cls-1{fill:#76ff03;}.cls-2{fill:none;stroke:#76ff03;stroke-miterlimit:10;stroke-width:0.63px;opacity:0.1;}</style></defs><title>twitter_1</title><g id="Layer_2" data-name="Layer 2"><g id="Layer_1-2" data-name="Layer 1"><path id="_Path_" data-name="&lt;Path&gt;" class="cls-1" d="M33.57,8.19a13.06,13.06,0,0,1-3.71,1A6.39,6.39,0,0,0,32.7,5.67a13,13,0,0,1-4.11,1.55,6.5,6.5,0,0,0-4.72-2A6.37,6.37,0,0,0,17.58,13,18.45,18.45,0,0,1,4.25,6.37a6.26,6.26,0,0,0-.88,3.2,6.34,6.34,0,0,0,2.88,5.3,6.54,6.54,0,0,1-2.93-.8v.08a6.24,6.24,0,0,0,.44,2.31,6.45,6.45,0,0,0,4.75,3.94,6.68,6.68,0,0,1-1.71.22,6.43,6.43,0,0,1-1.22-.12,6.46,6.46,0,0,0,6,4.42,13.09,13.09,0,0,1-8,2.72,13.41,13.41,0,0,1-1.54-.09A18.51,18.51,0,0,0,12,30.41a18,18,0,0,0,18-14.26,17.47,17.47,0,0,0,.44-3.84c0-.27,0-.55,0-.82A13,13,0,0,0,33.57,8.19Z"/><rect class="cls-2" x="0.31" y="0.31" width="35" height="35" rx="3.13" ry="3.13"/></g></g></svg>